<?xml version="1.0" encoding="UTF-8"?>
<svg id="Calque_1" data-name="Calque 1" xmlns="http://www.w3.org/2000/svg" viewBox="0 0 743.09 354.44">
  <defs>
    <style>
      .cls-1 {
        fill: none;
        stroke: #a48a7b;
        stroke-linecap: round;
        stroke-linejoin: round;
        stroke-width: .5px;
      }
    </style>
  </defs>
  <path class="cls-1" d="M500.01,55.4c-21.59-24.81-15.35,7.7,5.49-1.01,15.08-4.31,22.3-28.54,3.49-33.64-19.07-3.97-36.74,9.17-48.19,23.17-8.79,11.77-18.54,22.56-31.71,29.44"/>
  <path class="cls-1" d="M397.12,75.86c80.7-12.39,113.53,31.42,188.93,15.59,5.53,6.39,14.98,12.32,12.13,22.09-2.5,6.04-.31,15.4,7.46,15.24,6.81-1.01,14.85,4.55,13.51,11.95-.33,1.17.19,2,1.45,2.52,3.47.8,5.38,3.82,8.26,5.44,11.42,2.54,15.96,15.34,13.48,25.71"/>
  <path class="cls-1" d="M396.62,76.11c-36.54,3.4-71.55,22.49-108.88,16.96"/>
  <path class="cls-1" d="M650.59,76.86c-21.4,4.35-42.34,10.47-63.68,14.97"/>
  <path class="cls-1" d="M671.06,29.21c3.75-6.98,18.52-15.06,25.83-9.13-8.22,5.1-18.41,6.98-27.63,9.63-11.78,15.55-10.98,36.25-21.16,52.4-10.51,13.63-31.48,16.31-45.72,7.22"/>
  <path class="cls-1" d="M597.15,123.01c-1.18,3.25-2.73,6.25-5.72,8.26-16.69-8.25-16.71,5.75-30.49,8.45"/>
  <path class="cls-1" d="M721.26,82.09c-11.58-3.81-23.31-6.58-35.46-7.73"/>
  <path class="cls-1" d="M672.31,29.96c4.65,3.1,15.02,6.08,11.9,13.36-5.85,1.82-12.62-6.7-15.65-11.11"/>
  <path class="cls-1" d="M575.92,164.66c-4.13,12.37,3.15,17.48,4.33,28.74,7.83-2.37,12.72-6.9,14.4-14.77"/>
  <path class="cls-1" d="M667.57,108.29c7.15-3.88,11.21-11.56,20.17-6.09,5.66-3.54,4.36-10.64,5.05-16.36.05-5.22-5.31-8.42-8.31-11.78-10.94-.87-21.6.7-32.4,2.05"/>
  <path class="cls-1" d="M668.57,130.49c-.71-5.29-1.36-10.47.96-15.47-6.29.12-12.21,9.53-9.95,16.47"/>
  <path class="cls-1" d="M380.89,132.98c-.71-5.29-1.36-10.47.96-15.47-6.29.12-12.21,9.53-9.95,16.47"/>
  <path class="cls-1" d="M565.68,148.95c-10.39,1.18-16.52,14.06-13.48,23.45"/>
  <path class="cls-1" d="M619.12,142.71c-1,2.66-2,5.32-3.09,8.22-7.61-7.1-20.35,2.97-26.13-6.47"/>
  <path class="cls-1" d="M619.12,135.23c10.23.6,19.98,5.57,17.23,16.71"/>
  <path class="cls-1" d="M568.68,145.21c-5.07,6.62-5.53,12.74-4.75,19.39-7.43,9.16-6.93,18.8-1.99,28.75"/>
  <path class="cls-1" d="M633.86,165.91c3.24,8.83,2.35,17.3-2.24,25.96-4.95-2-7.71-6.27-11.49-9.74"/>
  <path class="cls-1" d="M595.9,149.2c-1.11,5.97-6.33,12.34-13.73,12.56-6.63.91-11.33,6.79-17.58,9.81-.23-2.04-.44-3.97-.65-5.9"/>
  <path class="cls-1" d="M609.63,192.1c2.03,9.54-5.29,16.02-11.99,21.45"/>
  <path class="cls-1" d="M691.29,115.27c-1.46,7.07-8.31,8.85-14.47,10.26-2.39,7.72,1,14.04,3.5,21.11,5.97-.98,7.96-5,10.22-10.17"/>
  <path class="cls-1" d="M403.62,117.77c-1.46,7.07-8.31,8.85-14.47,10.26-2.39,7.72,1,14.04,3.5,21.11,5.97-.98,7.96-5,10.22-10.17"/>
  <path class="cls-1" d="M396.87,76.61c10,7.21,10.93,18.47,3.9,28.16-11.28-5.04-12.16,1.26-20.88,6.02"/>
  <path class="cls-1" d="M565.43,191.11c1.1,7.86,4.66,14.78,8.31,21.82.56-.38,1.12-.75,1.68-1.12"/>
  <path class="cls-1" d="M628.86,191.11c-1.04,7.6-3.89,14.41-9.03,20.39-3.92-3.02-7.69-6.02-9.7-10.66"/>
  <path class="cls-1" d="M594.65,136.23c-2.51,8.85-10.83,12.06-17.48,11.98-6-.1-9.97-4.95-14.23-8.48"/>
  <path class="cls-1" d="M713.51,129.99c-1.32-2.52-3.21-4.14-6.27-4.05,4.96,11.07.13,17.32-8.16,20.99-2.02-3.45-4.03-6.88-6.09-10.42.61-.71,1.08-1.24,1.55-1.78"/>
  <path class="cls-1" d="M692.54,115.02c4.48-.61,8.99-1.54,13.28,1.26,4.29-7.87,1.67-17.07-8.53-15.98-2.89,2.98-5.18,3.5-8.74,2"/>
  <path class="cls-1" d="M404.87,117.52c4.48-.61,8.99-1.54,13.28,1.26,4.29-7.87,1.67-17.07-8.53-15.98-2.89,2.98-5.18,3.5-8.74,2"/>
  <path class="cls-1" d="M425.84,132.48c-1.32-2.52-3.21-4.14-6.27-4.05,4.96,11.07.13,17.32-8.16,20.99-2.02-3.45-4.03-6.88-6.09-10.42.61-.71,1.08-1.24,1.55-1.78"/>
  <path class="cls-1" d="M618.62,211.31c-2.24,7.44-4.93,13.36-9.36,20.12-4.69-3.79-8.08-7.92-11.63-12.63-.22-.2-.55-.37-.74,0"/>
  <path class="cls-1" d="M432.33,119.76c2.71-9.26-5.75-11.42-12.24-11.97"/>
  <path class="cls-1" d="M720.01,117.27c2.71-9.26-5.75-11.42-12.24-11.97"/>
  <path class="cls-1" d="M584.41,192.1c.4,3,.81,6.01,1.26,9.38-2.04,4.25-7.09,6.07-10.19,9.51,2.38,7.27,5.34,13.15,8.81,20.01,5.13-3.41,9.92-6.3,12.35-11.71"/>
  <path class="cls-1" d="M501.26,56.65c6.79,12.28-21.31,24.02-1-.5"/>
  <path class="cls-1" d="M493.51,118.52c.4,6.27-5.44,11.87-.75,17.96"/>
  <path class="cls-1" d="M427.09,117.77c.2,2.73.41,5.47.65,8.77,6.44,4.36,5.34,15.24,1.6,21.42"/>
  <path class="cls-1" d="M714.76,115.27c.2,2.73.41,5.47.65,8.77,6.44,4.36,5.34,15.24,1.6,21.42"/>
  <path class="cls-1" d="M667.82,126.75c-5.02,5.81-4.67,13.61-1.23,20.05,3.84-2.56,7.52-5.2,9.47-9.57"/>
  <path class="cls-1" d="M380.14,129.24c-5.02,5.81-4.67,13.61-1.23,20.05,3.84-2.56,7.52-5.2,9.47-9.57"/>
  <path class="cls-1" d="M597.65,149.2c6.59,20.56,18.75,8.38,28.72,19.21"/>
  <path class="cls-1" d="M504.75,88.33c6,4.85,5.47,8.11,4.74,15.19-.66.92-1.63,2.27-2.66,3.7-5.49-4.03-9.09,1.07-13.58,3.82"/>
  <path class="cls-1" d="M586.16,201.33c3.9,5.52,11.98,9.72,11.24,17.21"/>
  <path class="cls-1" d="M618.37,164.42c6.28,13.1,1.16,22.71-11.42,29.1-2.81-5.02-5.43-9.7-8.06-14.38"/>
  <path class="cls-1" d="M588.16,163.92c.39,6.75,4.67,11.48,8.76,16.45,4.44-4.58,8.84-9.36,9.22-16.45"/>
  <path class="cls-1" d="M669.07,145.46c1.85,5.29,3.7,10.58,5.66,16.21,3.38-3.26,6.35-6.12,9.32-8.98"/>
  <path class="cls-1" d="M381.39,147.95c1.85,5.29,3.7,10.58,5.66,16.21,3.38-3.26,6.35-6.12,9.32-8.98"/>
  <path class="cls-1" d="M587.41,229.52c.38,6.47,5.34,10.7,9.73,14.96,4.15-4.33,9.37-7.7,9.5-14.46"/>
  <path class="cls-1" d="M494.01,117.52c-.11-.75,0-1.22.62-1.74-4.38-.26-7.64,4.94-6.86,10.71,1.08-.66,2.16-1.32,3.25-1.98"/>
  <path class="cls-1" d="M420.6,112.78c2.24,1.46,4.49,2.91,7.36,4.77,5.55.2,11.21,9.76,8.97,16.88-1.89-1.6-3.86-3.27-5.84-4.94"/>
  <path class="cls-1" d="M708.27,110.28c2.24,1.46,4.49,2.91,7.36,4.77,5.55.2,11.21,9.76,8.97,16.88-1.89-1.6-3.86-3.27-5.84-4.94"/>
  <path class="cls-1" d="M690.29,105.54c-1.56,7.57-11.77,10.74-16.47,7.72-2.44-1.76-4.84-3.55-7.5-4.98"/>
  <path class="cls-1" d="M402.62,108.04c-1.56,7.57-11.77,10.74-16.47,7.72-2.44-1.76-4.84-3.55-7.5-4.98"/>
  <path class="cls-1" d="M715.01,145.46c-1.02,3.97-1.35,8.45-4.35,11.37-4.85,5.33-5.85,11.58-9.75,17.63-3.23-2.85-6.09-5.4-8.37-8.54"/>
  <path class="cls-1" d="M427.34,147.95c-1.02,3.97-1.35,8.45-4.35,11.37-4.85,5.33-5.85,11.58-9.75,17.63-3.23-2.85-6.09-5.4-8.37-8.54"/>
  <path class="cls-1" d="M508,109.53c-.68,1.37-1.36,2.73-1.91,3.85-6.08,2.75-8.69,1.59-13.57-2.35"/>
  <path class="cls-1" d="M388.88,162.92c1.61,4.88,3.92,9.11,6.27,13.78,3.68-2.48,7.08-4.7,8.96-8.54"/>
  <path class="cls-1" d="M676.56,160.42c1.61,4.88,3.92,9.11,6.27,13.78,3.68-2.48,7.08-4.7,8.96-8.54"/>
  <path class="cls-1" d="M686.8,111.78c1.57,1.52,2.84,3.55,5.45,3,1.85,7.26,7.55,10.52,14.53,10.97"/>
  <path class="cls-1" d="M628.36,148.95c1.75,4.15,1.4,8.43.73,11.88,4.62,4.29,8.81,8.18,13.01,12.07"/>
  <path class="cls-1" d="M399.12,114.27c1.57,1.52,2.84,3.55,5.45,3,1.85,7.26,7.55,10.52,14.53,10.97"/>
  <path class="cls-1" d="M520.23,109.04c4.46.34,9.25,1.99,7.99,7.73"/>
  <path class="cls-1" d="M524.98,121.76c4.88,2.56,3.36,10.03,1,14.04-2.58-.64-3.88-2.79-5.49-4.56"/>
  <path class="cls-1" d="M517.99,122.01c-3.91.54-6.46-1.49-8.35-6.8-5.45,11.38-10.27,1.28-11.12,12.29"/>
  <path class="cls-1" d="M603.64,129.24c-3.21,3.7-7.11,4.19-11.49,2.49"/>
  <path class="cls-1" d="M574.42,180.38c-1.85,5.8-7.43,8.78-11.99,12.22"/>
  <path class="cls-1" d="M498.51,130.99c-1.35,1.55-2.7,3.11-4.08,4.7.22,3.84,2.35,7.23,4.08,10.76"/>
  <path class="cls-1" d="M698.78,173.4c-.16,3.88-1.04,5.21-6.8,10.28-3.23-2.81-6.41-5.64-6.94-10.28"/>
  <path class="cls-1" d="M411.11,175.89c.11,4.96-3.78,7.29-6.65,10.4-3.37-2.93-6.55-5.76-7.08-10.4"/>
  <path class="cls-1" d="M685.3,126c1.72,4.19,3.23,8.32,6.5,11.59.26-.18.75-.52,1.24-.87"/>
  <path class="cls-1" d="M397.62,128.49c1.72,4.19,3.23,8.32,6.5,11.59.26-.18.75-.52,1.24-.87"/>
  <path class="cls-1" d="M700.53,152.44c-1.38,4.35-5.62,6.21-8.53,9.61.09,1.04.19,2.2.29,3.36"/>
  <path class="cls-1" d="M412.86,154.94c-1.38,4.35-5.62,6.21-8.53,9.61.09,1.04.19,2.2.29,3.36"/>
  <path class="cls-1" d="M683.05,146.2c-.92,6.8,5.05,11.14,8.99,15.72"/>
  <path class="cls-1" d="M524.48,135.73c-.63,7.27-6.51,12.36-9.03,19.07-.54-.27-.87-.44-1.21-.61"/>
  <path class="cls-1" d="M395.38,148.7c-.92,6.8,5.05,11.14,8.99,15.72"/>
  <path class="cls-1" d="M499.01,128.49c.24,2.84,1.92,5.28,2.88,7.96,3.54-.62,5.23-3.26,6.36-6.46"/>
  <path class="cls-1" d="M524.98,115.52c4.7,1.22,7.58,6.61,5.99,11.23"/>
  <path class="cls-1" d="M503.5,136.48c.15,1.34.3,2.68.49,4.35-1.23,1.6-3.04,3.01-5.06,4.27,1.4,3.17,2.79,6.33,4.06,9.21.83-.07,1.17-.09,1.5-.12"/>
  <path class="cls-1" d="M561.19,167.41c-3.74-.19-8.12,2.88-9.24,6.49"/>
  <path class="cls-1" d="M411.11,128.49c-1.1,2.81-1.48,5.95-3.75,8.23"/>
  <path class="cls-1" d="M698.78,126c-1.1,2.81-1.48,5.95-3.75,8.23"/>
  <path class="cls-1" d="M519.98,112.78c-.43,1.07-.87,2.14-1.39,3.42-2.74-1.41-5.65-1.7-8.6-.43"/>
  <path class="cls-1" d="M519.74,123.01c2.47,5.89,1.22,9.88-4,12.72"/>
  <path class="cls-1" d="M388.88,128.74c-2.66,1.75-5.33,3.49-7.99,5.24"/>
  <path class="cls-1" d="M676.56,126.25c-2.66,1.75-5.33,3.49-7.99,5.24"/>
  <path class="cls-1" d="M701.28,152.19c1.39,3.07,3.73,5.35,6.24,7.48"/>
  <path class="cls-1" d="M413.61,154.69c1.39,3.07,3.73,5.35,6.24,7.48"/>
  <path class="cls-1" d="M513.99,123.01c-1.14,2.3-2.27,4.59-3.57,7.22.99,1.68,2.23,3.8,3.66,6.24.2-.04.68-.13,1.2-.23.9,3.95-1.1,6.53-4.02,8.74-7.13,6.84,10.56,6.7-2.05,16.5-1.65-2.37-3.26-4.67-4.71-6.74,1.84-2.14,3.29-3.84,4.75-5.53"/>
  <path class="cls-1" d="M378.15,130.99c-3.44-.34-5.05,1.95-6.49,4.49"/>
  <path class="cls-1" d="M665.82,128.49c-3.44-.34-5.05,1.95-6.49,4.49"/>
  <path class="cls-1" d="M518.99,122.51c1.56.56,3.13,1.12,4.71,1.69,2.59-6.75,1.93-9.22-3.59-11.72v-2.99c-1.89-2.71-4.13-4.23-7.92-3.81-.41-.4-1.18-1.13-1.95-1.87"/>
  <path class="cls-1" d="M708.52,138.97c2.73,2.35,4.67,5.61,8.23,7.02.26.1.34.63.51.97"/>
  <path class="cls-1" d="M420.85,141.47c2.73,2.35,4.67,5.61,8.23,7.02.26.1.34.63.51.97"/>
  <path class="cls-1" d="M505.5,123.01c-.05,3.27,1.82,5.42,4.25,7.23"/>
  <path class="cls-1" d="M498.76,123.25c-1.5.91-3.01,1.81-4.55,2.75-.15-.74-.29-1.5-.44-2.25"/>
  <path class="cls-1" d="M628.61,162.42c-.34,2.36-2.89,5.12-1.25,7.23"/>
  <path class="cls-1" d="M413.36,148.95c-.08,1.83-.17,3.66-.25,5.49"/>
  <path class="cls-1" d="M701.03,146.45c-.08,1.83-.17,3.66-.25,5.49"/>
  <path class="cls-1" d="M504.75,141.22l4.49,5.24"/>
  <path class="cls-1" d="M515.49,140.22c1.42,1.66,2.83,3.33,4.25,4.99"/>
  <path class="cls-1" d="M692.29,96.31c1.33,1.33,2.66,2.66,4,3.99"/>
  <path class="cls-1" d="M404.62,98.81c1.33,1.33,2.66,2.66,4,3.99"/>
  <path class="cls-1" d="M512.24,106.29c-1.08,1.54-2.7,1.26-4.25,1.25"/>
  <path class="cls-1" d="M715.01,124.5c-.5,1.33-1,2.66-1.5,3.99"/>
  <path class="cls-1" d="M427.34,127c-.5,1.33-1,2.66-1.5,3.99"/>
  <path class="cls-1" d="M527.73,123.75c1.08,1.25,2.16,2.49,3.25,3.74"/>
  <path class="cls-1" d="M506.25,113.78c.92.67,1.83,1.33,2.75,2"/>
  <path class="cls-1" d="M383.89,115.02c-.58.75-1.17,1.5-1.75,2.25"/>
  <path class="cls-1" d="M671.56,112.53c-.58.75-1.17,1.5-1.75,2.25"/>
  <path class="cls-1" d="M495.76,113.78c-.33.5-.67,1-1,1.5"/>
</svg>